<svg width="239" height="69" viewBox="0 0 239 69" fill="none" xmlns="http://www.w3.org/2000/svg">
<path d="M23.6173 32.5522C95.586 -8.51905 166.246 -9.96023 239 23.9055C233.766 31.4712 229.317 28.5891 225.915 27.148C199.744 17.4207 172.789 16.3397 146.095 14.8987C107.624 12.737 71.2475 24.9864 35.6557 44.8014C34.0855 45.522 32.7769 46.9631 29.6365 49.8452C47.6941 54.8891 65.7517 46.2425 81.454 56.3301C81.1922 57.7712 81.1923 59.5727 80.9306 61.0137C69.1539 62.0946 57.1154 63.1754 45.3387 64.6165C33.562 66.0576 22.0471 67.8589 10.2704 68.9397C1.63413 69.6603 -2.02973 63.8959 1.11072 53.0877C5.03628 39.037 10.5321 26.0672 15.5045 12.7371C16.0279 11.296 16.813 9.49462 17.8598 8.77407C20.7385 7.33298 23.6173 6.97264 26.7577 5.89182C27.2811 9.49455 28.5897 13.4576 28.328 16.7C27.8046 21.0233 25.9726 24.6261 23.6173 32.5522Z" fill="#151515"/>
</svg>
