<svg width="385" height="169" viewBox="0 0 385 169" fill="none" xmlns="http://www.w3.org/2000/svg">
<mask id="mask0_1_4147" style="mask-type:alpha" maskUnits="userSpaceOnUse" x="0" y="0" width="385" height="169">
<rect width="384.973" height="169" fill="url(#paint0_radial_1_4147)"/>
</mask>
<g mask="url(#mask0_1_4147)">
<rect x="13.1358" y="2.03057" width="25.6216" height="25.6216" stroke="#706B91" stroke-width="0.324324"/>
<rect x="38.7574" y="2.03057" width="25.6216" height="25.6216" stroke="#706B91" stroke-width="0.324324"/>
<rect x="64.3792" y="2.03057" width="25.6216" height="25.6216" stroke="#706B91" stroke-width="0.324324"/>
<rect x="90.0005" y="2.03057" width="25.6216" height="25.6216" stroke="#706B91" stroke-width="0.324324"/>
<rect x="115.622" y="2.03057" width="25.6216" height="25.6216" stroke="#706B91" stroke-width="0.324324"/>
<rect x="141.244" y="2.03057" width="25.6216" height="25.6216" stroke="#706B91" stroke-width="0.324324"/>
<rect x="166.866" y="2.03057" width="25.6216" height="25.6216" stroke="#706B91" stroke-width="0.324324"/>
<rect x="192.487" y="2.03057" width="25.6216" height="25.6216" stroke="#706B91" stroke-width="0.324324"/>
<rect x="218.109" y="2.03057" width="25.6216" height="25.6216" stroke="#706B91" stroke-width="0.324324"/>
<rect x="243.73" y="2.03057" width="25.6216" height="25.6216" fill="#706B90" fill-opacity="0.25" stroke="#706B91" stroke-width="0.324324"/>
<rect x="269.352" y="2.03057" width="25.6216" height="25.6216" stroke="#706B91" stroke-width="0.324324"/>
<rect x="294.974" y="2.03057" width="25.6216" height="25.6216" stroke="#706B91" stroke-width="0.324324"/>
<rect x="320.595" y="2.03057" width="25.6216" height="25.6216" stroke="#706B91" stroke-width="0.324324"/>
<rect x="346.217" y="2.03057" width="25.6216" height="25.6216" stroke="#706B91" stroke-width="0.324324"/>
<rect x="13.1358" y="27.6522" width="25.6216" height="25.6216" stroke="#706B91" stroke-width="0.324324"/>
<rect x="38.7574" y="27.6522" width="25.6216" height="25.6216" stroke="#706B91" stroke-width="0.324324"/>
<rect x="64.3792" y="27.6523" width="25.6216" height="25.6216" stroke="#706B91" stroke-width="0.324324"/>
<rect x="90.0005" y="27.6523" width="25.6216" height="25.6216" stroke="#706B91" stroke-width="0.324324"/>
<rect x="115.622" y="27.6522" width="25.6216" height="25.6216" stroke="#706B91" stroke-width="0.324324"/>
<rect x="141.244" y="27.6522" width="25.6216" height="25.6216" stroke="#706B91" stroke-width="0.324324"/>
<rect x="166.866" y="27.6523" width="25.6216" height="25.6216" stroke="#706B91" stroke-width="0.324324"/>
<rect x="192.487" y="27.6523" width="25.6216" height="25.6216" stroke="#706B91" stroke-width="0.324324"/>
<rect x="218.109" y="27.6522" width="25.6216" height="25.6216" stroke="#706B91" stroke-width="0.324324"/>
<rect x="243.73" y="27.6522" width="25.6216" height="25.6216" stroke="#706B91" stroke-width="0.324324"/>
<rect x="269.352" y="27.6523" width="25.6216" height="25.6216" stroke="#706B91" stroke-width="0.324324"/>
<rect x="294.974" y="27.6522" width="25.6216" height="25.6216" fill="#706B90" fill-opacity="0.25" stroke="#706B91" stroke-width="0.324324"/>
<rect x="320.595" y="27.6522" width="25.6216" height="25.6216" stroke="#706B91" stroke-width="0.324324"/>
<rect x="346.217" y="27.6523" width="25.6216" height="25.6216" stroke="#706B91" stroke-width="0.324324"/>
<rect x="13.1358" y="53.2739" width="25.6216" height="25.6216" stroke="#706B91" stroke-width="0.324324"/>
<rect x="38.7574" y="53.2739" width="25.6216" height="25.6216" stroke="#706B91" stroke-width="0.324324"/>
<rect x="64.3792" y="53.274" width="25.6216" height="25.6216" stroke="#706B91" stroke-width="0.324324"/>
<rect x="90.0005" y="53.274" width="25.6216" height="25.6216" stroke="#706B91" stroke-width="0.324324"/>
<rect x="115.622" y="53.2739" width="25.6216" height="25.6216" stroke="#706B91" stroke-width="0.324324"/>
<rect x="141.244" y="53.2739" width="25.6216" height="25.6216" stroke="#706B91" stroke-width="0.324324"/>
<rect x="166.866" y="53.274" width="25.6216" height="25.6216" stroke="#706B91" stroke-width="0.324324"/>
<rect x="192.487" y="53.274" width="25.6216" height="25.6216" stroke="#706B91" stroke-width="0.324324"/>
<rect x="218.109" y="53.2739" width="25.6216" height="25.6216" stroke="#706B91" stroke-width="0.324324"/>
<rect x="243.73" y="53.2739" width="25.6216" height="25.6216" stroke="#706B91" stroke-width="0.324324"/>
<rect x="269.352" y="53.274" width="25.6216" height="25.6216" stroke="#706B91" stroke-width="0.324324"/>
<rect x="294.974" y="53.2739" width="25.6216" height="25.6216" stroke="#706B91" stroke-width="0.324324"/>
<rect x="320.595" y="53.2739" width="25.6216" height="25.6216" stroke="#706B91" stroke-width="0.324324"/>
<rect x="346.217" y="53.274" width="25.6216" height="25.6216" stroke="#706B91" stroke-width="0.324324"/>
<rect x="13.1358" y="78.8954" width="25.6216" height="25.6216" stroke="#706B91" stroke-width="0.324324"/>
<rect x="38.7574" y="78.8954" width="25.6216" height="25.6216" stroke="#706B91" stroke-width="0.324324"/>
<rect x="64.3792" y="78.8956" width="25.6216" height="25.6216" stroke="#706B91" stroke-width="0.324324"/>
<rect x="90.0005" y="78.8956" width="25.6216" height="25.6216" stroke="#706B91" stroke-width="0.324324"/>
<rect x="115.622" y="78.8954" width="25.6216" height="25.6216" stroke="#706B91" stroke-width="0.324324"/>
<rect x="141.244" y="78.8954" width="25.6216" height="25.6216" stroke="#706B91" stroke-width="0.324324"/>
<rect x="166.866" y="78.8956" width="25.6216" height="25.6216" fill="#706B90" fill-opacity="0.25" stroke="#706B91" stroke-width="0.324324"/>
<rect x="192.487" y="78.8956" width="25.6216" height="25.6216" stroke="#706B91" stroke-width="0.324324"/>
<rect x="218.109" y="78.8954" width="25.6216" height="25.6216" fill="#706B90" fill-opacity="0.25" stroke="#706B91" stroke-width="0.324324"/>
<rect x="243.73" y="78.8954" width="25.6216" height="25.6216" stroke="#706B91" stroke-width="0.324324"/>
<rect x="269.352" y="78.8956" width="25.6216" height="25.6216" stroke="#706B91" stroke-width="0.324324"/>
<rect x="294.974" y="78.8954" width="25.6216" height="25.6216" stroke="#706B91" stroke-width="0.324324"/>
<rect x="320.595" y="78.8954" width="25.6216" height="25.6216" stroke="#706B91" stroke-width="0.324324"/>
<rect x="346.217" y="78.8956" width="25.6216" height="25.6216" stroke="#706B91" stroke-width="0.324324"/>
<rect x="13.1358" y="104.517" width="25.6216" height="25.6216" stroke="#706B91" stroke-width="0.324324"/>
<rect x="38.7574" y="104.517" width="25.6216" height="25.6216" stroke="#706B91" stroke-width="0.324324"/>
<rect x="64.3792" y="104.517" width="25.6216" height="25.6216" stroke="#706B91" stroke-width="0.324324"/>
<rect x="90.0005" y="104.517" width="25.6216" height="25.6216" stroke="#706B91" stroke-width="0.324324"/>
<rect x="115.622" y="104.517" width="25.6216" height="25.6216" stroke="#706B91" stroke-width="0.324324"/>
<rect x="141.244" y="104.517" width="25.6216" height="25.6216" stroke="#706B91" stroke-width="0.324324"/>
<rect x="166.866" y="104.517" width="25.6216" height="25.6216" stroke="#706B91" stroke-width="0.324324"/>
<rect x="192.487" y="104.517" width="25.6216" height="25.6216" stroke="#706B91" stroke-width="0.324324"/>
<rect x="218.109" y="104.517" width="25.6216" height="25.6216" stroke="#706B91" stroke-width="0.324324"/>
<rect x="243.73" y="104.517" width="25.6216" height="25.6216" stroke="#706B91" stroke-width="0.324324"/>
<rect x="269.352" y="104.517" width="25.6216" height="25.6216" stroke="#706B91" stroke-width="0.324324"/>
<rect x="294.974" y="104.517" width="25.6216" height="25.6216" fill="#706B90" fill-opacity="0.25" stroke="#706B91" stroke-width="0.324324"/>
<rect x="320.595" y="104.517" width="25.6216" height="25.6216" stroke="#706B91" stroke-width="0.324324"/>
<rect x="346.217" y="104.517" width="25.6216" height="25.6216" stroke="#706B91" stroke-width="0.324324"/>
<rect x="13.1358" y="130.139" width="25.6216" height="25.6216" stroke="#706B91" stroke-width="0.324324"/>
<rect x="38.7574" y="130.139" width="25.6216" height="25.6216" stroke="#706B91" stroke-width="0.324324"/>
<rect x="64.3792" y="130.139" width="25.6216" height="25.6216" stroke="#706B91" stroke-width="0.324324"/>
<rect x="90.0005" y="130.139" width="25.6216" height="25.6216" stroke="#706B91" stroke-width="0.324324"/>
<rect x="115.622" y="130.139" width="25.6216" height="25.6216" stroke="#706B91" stroke-width="0.324324"/>
<rect x="141.244" y="130.139" width="25.6216" height="25.6216" fill="#706B90" fill-opacity="0.25" stroke="#706B91" stroke-width="0.324324"/>
<rect x="166.866" y="130.139" width="25.6216" height="25.6216" stroke="#706B91" stroke-width="0.324324"/>
<rect x="192.487" y="130.139" width="25.6216" height="25.6216" stroke="#706B91" stroke-width="0.324324"/>
<rect x="218.109" y="130.139" width="25.6216" height="25.6216" stroke="#706B91" stroke-width="0.324324"/>
<rect x="243.73" y="130.139" width="25.6216" height="25.6216" stroke="#706B91" stroke-width="0.324324"/>
<rect x="269.352" y="130.139" width="25.6216" height="25.6216" stroke="#706B91" stroke-width="0.324324"/>
<rect x="294.974" y="130.139" width="25.6216" height="25.6216" stroke="#706B91" stroke-width="0.324324"/>
<rect x="320.595" y="130.139" width="25.6216" height="25.6216" stroke="#706B91" stroke-width="0.324324"/>
<rect x="346.217" y="130.139" width="25.6216" height="25.6216" stroke="#706B91" stroke-width="0.324324"/>
<rect x="13.1358" y="155.76" width="25.6216" height="25.6216" stroke="#706B91" stroke-width="0.324324"/>
<rect x="38.7574" y="155.76" width="25.6216" height="25.6216" stroke="#706B91" stroke-width="0.324324"/>
<rect x="64.3792" y="155.76" width="25.6216" height="25.6216" stroke="#706B91" stroke-width="0.324324"/>
<rect x="90.0005" y="155.76" width="25.6216" height="25.6216" stroke="#706B91" stroke-width="0.324324"/>
<rect x="115.622" y="155.76" width="25.6216" height="25.6216" stroke="#706B91" stroke-width="0.324324"/>
<rect x="141.244" y="155.76" width="25.6216" height="25.6216" stroke="#706B91" stroke-width="0.324324"/>
<rect x="166.866" y="155.76" width="25.6216" height="25.6216" stroke="#706B91" stroke-width="0.324324"/>
<rect x="192.487" y="155.76" width="25.6216" height="25.6216" stroke="#706B91" stroke-width="0.324324"/>
<rect x="218.109" y="155.76" width="25.6216" height="25.6216" stroke="#706B91" stroke-width="0.324324"/>
<rect x="243.73" y="155.76" width="25.6216" height="25.6216" fill="#706B90" fill-opacity="0.25" stroke="#706B91" stroke-width="0.324324"/>
<rect x="269.352" y="155.76" width="25.6216" height="25.6216" stroke="#706B91" stroke-width="0.324324"/>
<rect x="294.974" y="155.76" width="25.6216" height="25.6216" stroke="#706B91" stroke-width="0.324324"/>
<rect x="320.595" y="155.76" width="25.6216" height="25.6216" stroke="#706B91" stroke-width="0.324324"/>
<rect x="346.217" y="155.76" width="25.6216" height="25.6216" stroke="#706B91" stroke-width="0.324324"/>
</g>
<defs>
<radialGradient id="paint0_radial_1_4147" cx="0" cy="0" r="1" gradientUnits="userSpaceOnUse" gradientTransform="translate(192.486 84.5) rotate(90) scale(104.169 237.292)">
<stop stop-color="#D9D9D9" stop-opacity="0.2"/>
<stop offset="0.802083" stop-color="#D9D9D9" stop-opacity="0"/>
</radialGradient>
</defs>
</svg>
